<svg width="18" height="18" viewBox="0 0 18 18" fill="none" xmlns="http://www.w3.org/2000/svg">
<path d="M13.9501 2.7002H4.95007C4.35334 2.7002 3.78104 2.93725 3.35908 3.35921C2.93713 3.78116 2.70007 4.35346 2.70007 4.9502V13.9502C2.70007 14.5469 2.93713 15.1192 3.35908 15.5412C3.78104 15.9631 4.35334 16.2002 4.95007 16.2002H13.9501C14.149 16.2002 14.3398 16.1212 14.4804 15.9805C14.6211 15.8399 14.7001 15.6491 14.7001 15.4502V3.4502C14.7001 3.25128 14.6211 3.06052 14.4804 2.91987C14.3398 2.77921 14.149 2.7002 13.9501 2.7002ZM4.95007 4.2002H13.2001V11.7002H4.95007C4.69422 11.7022 4.44058 11.7479 4.20007 11.8352V4.9502C4.20007 4.75128 4.27909 4.56052 4.41974 4.41987C4.5604 4.27921 4.75116 4.2002 4.95007 4.2002ZM4.95007 14.7002C4.75116 14.7002 4.5604 14.6212 4.41974 14.4805C4.27909 14.3399 4.20007 14.1491 4.20007 13.9502C4.20007 13.7513 4.27909 13.5605 4.41974 13.4199C4.5604 13.2792 4.75116 13.2002 4.95007 13.2002H13.2001V14.7002H4.95007Z" fill="#8B949E"/>
</svg>
