<svg width="16" height="16" viewBox="0 0 16 16" fill="none" xmlns="http://www.w3.org/2000/svg">
<path d="M8.56644 2.6195C8.41619 2.47889 8.21243 2.3999 7.99997 2.3999C7.78752 2.3999 7.58376 2.47889 7.43351 2.6195L1.82489 7.86957C1.67894 8.01102 1.59818 8.20047 1.60001 8.39712C1.60183 8.59377 1.6861 8.78189 1.83465 8.92094C1.98321 9.06 2.18416 9.13888 2.39424 9.14059C2.60432 9.1423 2.80672 9.0667 2.95783 8.93008L3.19259 8.71033V13.6499C3.19259 13.8488 3.27701 14.0396 3.42727 14.1802C3.57753 14.3209 3.78132 14.3999 3.99382 14.3999H5.59628C5.80878 14.3999 6.01258 14.3209 6.16284 14.1802C6.3131 14.0396 6.39751 13.8488 6.39751 13.6499V12.1499C6.39751 11.951 6.48193 11.7602 6.63219 11.6195C6.78245 11.4789 6.98624 11.3999 7.19874 11.3999H8.80121C9.01371 11.3999 9.2175 11.4789 9.36776 11.6195C9.51802 11.7602 9.60244 11.951 9.60244 12.1499V13.6499C9.60244 13.8488 9.68685 14.0396 9.83711 14.1802C9.98737 14.3209 10.1912 14.3999 10.4037 14.3999H12.0061C12.2186 14.3999 12.4224 14.3209 12.5727 14.1802C12.7229 14.0396 12.8074 13.8488 12.8074 13.6499V8.71033L13.0421 8.93008C13.1932 9.0667 13.3956 9.1423 13.6057 9.14059C13.8158 9.13888 14.0167 9.06 14.1653 8.92094C14.3139 8.78189 14.3981 8.59377 14.3999 8.39712C14.4018 8.20047 14.321 8.01102 14.1751 7.86957L8.56644 2.6195Z" fill="white"/>
</svg>
