<svg width="18" height="18" viewBox="0 0 18 18" fill="none" xmlns="http://www.w3.org/2000/svg">
<path d="M11.925 7.34855L5.17505 3.45605" stroke="#8B949E" stroke-width="1.6" stroke-linecap="round" stroke-linejoin="round"/>
<path d="M15.3 12.2983V6.29827C15.2998 6.03522 15.2303 5.77687 15.0987 5.54914C14.9671 5.3214 14.7779 5.13229 14.55 5.00077L9.30005 2.00077C9.07202 1.86911 8.81335 1.7998 8.55005 1.7998C8.28674 1.7998 8.02808 1.86911 7.80005 2.00077L2.55005 5.00077C2.32225 5.13229 2.13303 5.3214 2.00139 5.54914C1.86976 5.77687 1.80032 6.03522 1.80005 6.29827V12.2983C1.80032 12.5613 1.86976 12.8197 2.00139 13.0474C2.13303 13.2751 2.32225 13.4642 2.55005 13.5958L7.80005 16.5958C8.02808 16.7274 8.28674 16.7967 8.55005 16.7967C8.81335 16.7967 9.07202 16.7274 9.30005 16.5958L14.55 13.5958C14.7779 13.4642 14.9671 13.2751 15.0987 13.0474C15.2303 12.8197 15.2998 12.5613 15.3 12.2983Z" stroke="#8B949E" stroke-width="1.6" stroke-linecap="round" stroke-linejoin="round"/>
<path d="M2.00244 5.51855L8.54994 9.30606L15.0974 5.51855" stroke="#8B949E" stroke-width="1.6" stroke-linecap="round" stroke-linejoin="round"/>
<path d="M8.55005 16.8583V9.29834" stroke="#8B949E" stroke-width="1.6" stroke-linecap="round" stroke-linejoin="round"/>
</svg>
