<svg width="18" height="18" viewBox="0 0 18 18" fill="none" xmlns="http://www.w3.org/2000/svg">
<path d="M13.4428 16.0529C13.3228 16.0534 13.2045 16.0251 13.0978 15.9704L9.27277 13.9679L5.44777 15.9704C5.32357 16.0357 5.18353 16.0649 5.04358 16.0545C4.90363 16.0442 4.76938 15.9949 4.65609 15.912C4.54281 15.8292 4.45503 15.7163 4.40273 15.5861C4.35044 15.4558 4.33573 15.3136 4.36027 15.1754L5.11027 10.9529L2.02027 7.95289C1.92386 7.85668 1.85547 7.73604 1.82244 7.60391C1.78941 7.47178 1.79298 7.33314 1.83277 7.20289C1.87624 7.06959 1.9562 6.95115 2.06358 6.86101C2.17096 6.77086 2.30146 6.71262 2.44027 6.69289L6.71527 6.07039L8.59777 2.22289C8.65918 2.09608 8.75507 1.98914 8.87445 1.91432C8.99383 1.83949 9.13188 1.7998 9.27277 1.7998C9.41366 1.7998 9.55171 1.83949 9.67109 1.91432C9.79047 1.98914 9.88636 2.09608 9.94777 2.22289L11.8528 6.06289L16.1278 6.68539C16.2666 6.70512 16.3971 6.76336 16.5045 6.85351C16.6118 6.94365 16.6918 7.06209 16.7353 7.19539C16.7751 7.32564 16.7786 7.46428 16.7456 7.59641C16.7126 7.72854 16.6442 7.84918 16.5478 7.94539L13.4578 10.9454L14.2078 15.1679C14.2345 15.3085 14.2205 15.4538 14.1674 15.5867C14.1142 15.7196 14.0241 15.8345 13.9078 15.9179C13.772 16.0131 13.6084 16.0605 13.4428 16.0529ZM9.27277 12.3779C9.39299 12.3749 9.51193 12.4033 9.61777 12.4604L12.4453 13.9604L11.9053 10.8029C11.8843 10.6823 11.8932 10.5585 11.9311 10.4421C11.969 10.3258 12.0348 10.2205 12.1228 10.1354L14.3728 7.93789L11.2228 7.47289C11.1073 7.44963 10.9989 7.39948 10.9063 7.32651C10.8138 7.25354 10.7398 7.1598 10.6903 7.05289L9.27277 4.24039L7.85527 7.05289C7.80101 7.16067 7.72154 7.25376 7.62361 7.32427C7.52569 7.39477 7.41219 7.44061 7.29277 7.45789L4.14277 7.92289L6.39277 10.1204C6.48073 10.2055 6.54653 10.3108 6.58444 10.4271C6.62236 10.5435 6.63122 10.6673 6.61027 10.7879L6.07027 13.9079L8.89777 12.4079C9.01758 12.3633 9.1474 12.353 9.27277 12.3779Z" fill="#8B949E"/>
</svg>
