<svg width="18" height="18" viewBox="0 0 18 18" fill="none" xmlns="http://www.w3.org/2000/svg">
<path d="M2.69995 3.4877C2.69995 3.27884 2.78292 3.07853 2.9306 2.93085C3.07829 2.78316 3.27859 2.7002 3.48745 2.7002H14.5125C14.7213 2.7002 14.9216 2.78316 15.0693 2.93085C15.217 3.07853 15.3 3.27884 15.3 3.4877V5.0627C15.3 5.27155 15.217 5.47186 15.0693 5.61954C14.9216 5.76723 14.7213 5.8502 14.5125 5.8502H3.48745C3.27859 5.8502 3.07829 5.76723 2.9306 5.61954C2.78292 5.47186 2.69995 5.27155 2.69995 5.0627V3.4877ZM2.69995 9.7877C2.69995 9.57884 2.78292 9.37853 2.9306 9.23085C3.07829 9.08316 3.27859 9.0002 3.48745 9.0002H8.21245C8.42131 9.0002 8.62161 9.08316 8.7693 9.23085C8.91698 9.37853 8.99995 9.57884 8.99995 9.7877V14.5127C8.99995 14.7216 8.91698 14.9219 8.7693 15.0695C8.62161 15.2172 8.42131 15.3002 8.21245 15.3002H3.48745C3.27859 15.3002 3.07829 15.2172 2.9306 15.0695C2.78292 14.9219 2.69995 14.7216 2.69995 14.5127V9.7877ZM12.15 9.7877C12.15 9.57884 12.2329 9.37853 12.3806 9.23085C12.5283 9.08316 12.7286 9.0002 12.9375 9.0002H14.5125C14.7213 9.0002 14.9216 9.08316 15.0693 9.23085C15.217 9.37853 15.3 9.57884 15.3 9.7877V14.5127C15.3 14.7216 15.217 14.9219 15.0693 15.0695C14.9216 15.2172 14.7213 15.3002 14.5125 15.3002H12.9375C12.7286 15.3002 12.5283 15.2172 12.3806 15.0695C12.2329 14.9219 12.15 14.7216 12.15 14.5127V9.7877Z" stroke="#8B949E" stroke-width="1.6" stroke-linecap="round" stroke-linejoin="round"/>
</svg>
